<svg xmlns="http://www.w3.org/2000/svg" xmlns:xlink="http://www.w3.org/1999/xlink" width="24" height="24" viewBox="0 0 24 24">
    <defs>
        <path id="prefix__a" d="M20 7h-4V5c0-.55-.22-1.05-.59-1.41C15.05 3.22 14.55 3 14 3h-4c-1.1 0-2 .9-2 2v2H4c-1.1 0-2 .9-2 2v11c0 1.1.9 2 2 2h16c1.1 0 2-.9 2-2V9c0-1.1-.9-2-2-2zm-7 3v3h3v2h-3v3h-2v-3H8v-2h3v-3h2zm1-5v2h-4V5h4z"/>
    </defs>
    <g fill="none" fill-rule="evenodd">
        <mask id="prefix__b" fill="#fff">
            <use xlink:href="#prefix__a"/>
        </mask>
        <g fill="#64656A" mask="url(#prefix__b)">
            <path d="M0 0H24V24H0z"/>
        </g>
    </g>
</svg>
