<svg xmlns="http://www.w3.org/2000/svg" xmlns:xlink="http://www.w3.org/1999/xlink" width="48" height="48" viewBox="0 0 48 48">
    <defs>
        <path id="prefix__a" d="M35 0v1.034C34.67 1.01 34.337 1 34 1c-7.732 0-14 6.044-14 13.5S26.268 28 34 28c.336 0 .67-.011 1-.034V48H0V0h35z"/>
    </defs>
    <g fill="none" fill-rule="evenodd">
        <mask id="prefix__b" fill="#fff">
            <use xlink:href="#prefix__a"/>
        </mask>
        <g mask="url(#prefix__b)">
            <g>
                <path fill="#FD9498" d="M1.975 30.917c.123-1.898.62-3.717 1.484-5.42 2.415-4.765 7.232-7.725 12.572-7.725 7.451 0 13.568 5.815 14.055 13.145H1.976z" transform="translate(0 13)"/>
                <path fill="#000" fill-rule="nonzero" d="M20.526 16.534c2.578-1.537 4.309-4.353 4.309-7.566 0-4.854-3.95-8.804-8.804-8.804-4.855 0-8.805 3.95-8.805 8.804 0 3.213 1.73 6.028 4.308 7.566-1.395.408-2.733 1.007-3.976 1.786C5.452 19.64.406 23.472.406 31.545c0 .555.198.973.596 1.254H31.06c.52 0 .94-.421.94-.94 0-7.246-4.85-13.378-11.473-15.325zM9.11 8.968c0-3.817 3.105-6.922 6.922-6.922 3.816 0 6.921 3.105 6.921 6.922 0 3.816-3.105 6.921-6.921 6.921-3.817 0-6.922-3.105-6.922-6.921zM1.975 30.917c.123-1.898.62-3.717 1.484-5.42 2.415-4.765 7.232-7.725 12.572-7.725 7.451 0 13.568 5.815 14.055 13.145H1.976z" transform="translate(0 13)"/>
                <path fill="#000" d="M24.192 27.642h-5.773c-.52 0-.94.421-.94.94 0 .52.42.942.94.942h5.773c.52 0 .94-.422.94-.941 0-.52-.42-.941-.94-.941zM26.905 27.642c-1.211 0-1.213 1.882 0 1.882 1.211 0 1.213-1.883 0-1.883z" transform="translate(0 13)"/>
            </g>
        </g>
        <g fill="#C8000D">
            <path d="M14.001 0h2.373C23.887 0 30 6.113 30 13.626c0 7.514-6.113 13.626-13.626 13.626H14c-1.173 0-2.333-.149-3.458-.443l-3.505 3.503c-.18.18-.42.274-.663.274-.121 0-.243-.023-.359-.071-.35-.145-.579-.487-.579-.866v-5.424c-1.483-1.202-2.716-2.72-3.581-4.416C.873 17.883.375 15.803.375 13.626.375 6.113 6.488 0 14.001 0zM6.94 23.019c.235.177.373.454.373.749v3.619l2.295-2.293c.178-.179.418-.275.662-.275.092 0 .185.014.276.042 1.116.343 2.278.516 3.456.516h2.373c6.48 0 11.751-5.271 11.751-11.75 0-6.48-5.272-11.752-11.751-11.752H14c-6.48 0-11.751 5.272-11.751 11.751 0 3.725 1.71 7.149 4.69 9.393z" transform="translate(18)"/>
            <path d="M19.41 10.258c-.136-1.962-1.718-3.545-3.68-3.68-1.113-.076-2.175.299-2.988 1.058-.802.748-1.261 1.806-1.261 2.902 0 .517.42.937.937.937.518 0 .938-.42.938-.937 0-.587.236-1.13.665-1.532.43-.4.99-.598 1.58-.557 1.033.071 1.867.904 1.938 1.938.072 1.044-.613 1.967-1.629 2.194-.823.184-1.398.9-1.398 1.74v2.252c0 .517.42.937.938.937s.938-.42.937-.937v-2.178c1.89-.456 3.157-2.185 3.022-4.137zM16.113 19.618c-.175-.174-.416-.275-.663-.275-.247 0-.488.1-.663.275-.174.175-.275.416-.275.663 0 .247.1.49.275.664.175.174.416.273.663.273.247 0 .488-.099.663-.273.174-.176.274-.417.274-.664 0-.247-.1-.488-.274-.663z" transform="translate(18)"/>
        </g>
    </g>
</svg>
